<svg id="SvgjsSvg1001" width="697" height="535" xmlns="http://www.w3.org/2000/svg" version="1.1" xmlns:xlink="http://www.w3.org/1999/xlink" xmlns:svgjs="http://svgjs.com/svgjs"><defs id="SvgjsDefs1002"></defs><g id="SvgjsG1008" transform="translate(67,25.000000000000057)"><path id="SvgjsPath1009" d="M 0 0L 94 0L 94 464.3984375L 0 464.3984375Z" stroke="rgba(33,41,48,1)" stroke-width="2" fill-opacity="1" fill="#ffffff"></path><g id="SvgjsG1010"><text id="SvgjsText1011" font-family="微软雅黑" text-anchor="middle" font-size="13px" width="74px" fill="#323232" font-weight="400" align="middle" lineHeight="125%" anchor="middle" family="微软雅黑" size="13px" weight="400" font-style="" opacity="1" y="221.57421875" transform="rotate(0)"><tspan id="SvgjsTspan1012" dy="16" x="47"><tspan id="SvgjsTspan1013" style="text-decoration:;">stack</tspan></tspan></text></g></g><g id="SvgjsG1014" transform="translate(229,25.000000000000057)"><path id="SvgjsPath1015" d="M 0 0L 443 0L 443 238L 0 238Z" stroke="rgba(33,41,48,1)" stroke-width="2" fill-opacity="1" fill="#ffffff"></path><g id="SvgjsG1016"><text id="SvgjsText1017" font-family="微软雅黑" text-anchor="middle" font-size="13px" width="423px" fill="#323232" font-weight="400" align="middle" lineHeight="125%" anchor="middle" family="微软雅黑" size="13px" weight="400" font-style="" opacity="1" y="108.375" transform="rotate(0)"><tspan id="SvgjsTspan1018" dy="16" x="221.5"><tspan id="SvgjsTspan1019" style="text-decoration:;">heap</tspan></tspan></text></g></g><g id="SvgjsG1020" transform="translate(229,279.99999999999994)"><path id="SvgjsPath1021" d="M 0 0L 443 0L 443 209.3984375L 0 209.3984375Z" stroke="rgba(33,41,48,1)" stroke-width="2" fill-opacity="1" fill="#ffffff"></path><g id="SvgjsG1022"><text id="SvgjsText1023" font-family="微软雅黑" text-anchor="middle" font-size="13px" width="423px" fill="#323232" font-weight="400" align="middle" lineHeight="125%" anchor="middle" family="微软雅黑" size="13px" weight="400" font-style="" opacity="1" y="94.07421875" transform="rotate(0)"><tspan id="SvgjsTspan1024" dy="16" x="221.5"><tspan id="SvgjsTspan1025" style="text-decoration:;">method area</tspan></tspan></text></g></g><g id="SvgjsG1026" transform="translate(247.99999999999994,298.99999999999994)"><path id="SvgjsPath1027" d="M 0 0L 143 0L 143 174.3984375L 0 174.3984375Z" stroke="rgba(33,41,48,1)" stroke-width="2" fill-opacity="1" fill="#ffffff"></path><g id="SvgjsG1028"><text id="SvgjsText1029" font-family="微软雅黑" text-anchor="middle" font-size="13px" width="123px" fill="#323232" font-weight="400" align="middle" lineHeight="125%" anchor="middle" family="微软雅黑" size="13px" weight="400" font-style="" opacity="1" y="76.57421875" transform="rotate(0)"><tspan id="SvgjsTspan1030" dy="16" x="71.5"><tspan id="SvgjsTspan1031" style="text-decoration:;">const pool</tspan></tspan></text></g></g><g id="SvgjsG1032" transform="translate(540.4999999999999,288.30468749999994)"><path id="SvgjsPath1033" d="M 0 0L 111 0L 111 185.09375L 0 185.09375Z" stroke="rgba(33,41,48,1)" stroke-width="2" fill-opacity="1" fill="#ffffff"></path><g id="SvgjsG1034"><text id="SvgjsText1035" font-family="微软雅黑" text-anchor="middle" font-size="13px" width="91px" fill="#323232" font-weight="400" align="middle" lineHeight="125%" anchor="middle" family="微软雅黑" size="13px" weight="400" font-style="" opacity="1" y="81.921875" transform="rotate(0)"><tspan id="SvgjsTspan1036" dy="16" x="55.5"><tspan id="SvgjsTspan1037" style="text-decoration:;">static area</tspan></tspan></text></g></g><g id="SvgjsG1038" transform="translate(25,298.99999999999994)"><path id="SvgjsPath1039" d="M 0 0L 68 0L 84 16L 84 146.09375L 0 146.09375L 0 0Z" stroke="none" fill-opacity="1" fill="#fff7bc"></path><path id="SvgjsPath1040" d="M 68 0L 68 16L 84 16Z" stroke="none" fill-opacity="1" fill="#e4d089"></path><path id="SvgjsPath1041" d="M 0 0L 68 0L 84 16L 84 146.09375L 0 146.09375L 0 0Z" stroke="none" fill="none"></path><g id="SvgjsG1042"><text id="SvgjsText1043" font-family="微软雅黑" text-anchor="middle" font-size="13px" width="64px" fill="#323232" font-weight="400" align="middle" lineHeight="125%" anchor="middle" family="微软雅黑" size="13px" weight="400" font-style="" opacity="1" y="62.421875" transform="rotate(0)"><tspan id="SvgjsTspan1044" dy="16" x="42"><tspan id="SvgjsTspan1045" style="text-decoration:;">局部变量</tspan></tspan></text></g></g><g id="SvgjsG1046" transform="translate(536.5,42.000000000000036)"><path id="SvgjsPath1047" d="M 0 0L 103 0L 119 16L 119 133L 0 133L 0 0Z" stroke="none" fill-opacity="1" fill="#fff7bc"></path><path id="SvgjsPath1048" d="M 103 0L 103 16L 119 16Z" stroke="none" fill-opacity="1" fill="#e4d089"></path><path id="SvgjsPath1049" d="M 0 0L 103 0L 119 16L 119 133L 0 133L 0 0Z" stroke="none" fill="none"></path><g id="SvgjsG1050"><text id="SvgjsText1051" font-family="微软雅黑" text-anchor="middle" font-size="13px" width="99px" fill="#323232" font-weight="400" align="middle" lineHeight="125%" anchor="middle" family="微软雅黑" size="13px" weight="400" font-style="" opacity="1" y="47.375" transform="rotate(0)"><tspan id="SvgjsTspan1052" dy="16" x="59.5"><tspan id="SvgjsTspan1053" style="text-decoration:;">new 产生的对</tspan></tspan><tspan id="SvgjsTspan1054" dy="16" x="59.5"><tspan id="SvgjsTspan1055" style="text-decoration:;">象、数组</tspan></tspan></text></g></g><g id="SvgjsG1056" transform="translate(191,409.99999999999994)"><path id="SvgjsPath1057" d="M 0 0L 84 0L 100 16L 100 100L 0 100L 0 0Z" stroke="none" fill-opacity="1" fill="#fff7bc"></path><path id="SvgjsPath1058" d="M 84 0L 84 16L 100 16Z" stroke="none" fill-opacity="1" fill="#e4d089"></path><path id="SvgjsPath1059" d="M 0 0L 84 0L 100 16L 100 100L 0 100L 0 0Z" stroke="none" fill="none"></path><g id="SvgjsG1060"><text id="SvgjsText1061" font-family="微软雅黑" text-anchor="middle" font-size="13px" width="80px" fill="#323232" font-weight="400" align="middle" lineHeight="125%" anchor="middle" family="微软雅黑" size="13px" weight="400" font-style="" opacity="1" y="39.375" transform="rotate(0)"><tspan id="SvgjsTspan1062" dy="16" x="50"><tspan id="SvgjsTspan1063" style="text-decoration:;">字符串</tspan></tspan></text></g></g><g id="SvgjsG1064" transform="translate(482,409.99999999999994)"><path id="SvgjsPath1065" d="M 0 0L 84 0L 100 16L 100 100L 0 100L 0 0Z" stroke="none" fill-opacity="1" fill="#fff7bc"></path><path id="SvgjsPath1066" d="M 84 0L 84 16L 100 16Z" stroke="none" fill-opacity="1" fill="#e4d089"></path><path id="SvgjsPath1067" d="M 0 0L 84 0L 100 16L 100 100L 0 100L 0 0Z" stroke="none" fill="none"></path><g id="SvgjsG1068"><text id="SvgjsText1069" font-family="微软雅黑" text-anchor="middle" font-size="13px" width="80px" fill="#323232" font-weight="400" align="middle" lineHeight="125%" anchor="middle" family="微软雅黑" size="13px" weight="400" font-style="" opacity="1" y="39.375" transform="rotate(0)"><tspan id="SvgjsTspan1070" dy="16" x="50"><tspan id="SvgjsTspan1071" style="text-decoration:;">静态变量</tspan></tspan></text></g></g></svg>